<svg xmlns="http://www.w3.org/2000/svg" width="512" height="512" viewBox="0 0 512 512" fill="none">
  <rect width="512" height="512" rx="102.4" fill="#6D28D9"/>
  <g filter="url(#filter0_d_1_2)">
    <path d="M256 154.667C198.56 154.667 152 201.227 152 258.667C152 316.107 198.56 362.667 256 362.667C313.44 362.667 360 316.107 360 258.667C360 201.227 313.44 154.667 256 154.667ZM256 332.267C215.312 332.267 182.4 299.355 182.4 258.667C182.4 217.979 215.312 185.067 256 185.067C296.688 185.067 329.6 217.979 329.6 258.667C329.6 299.355 296.688 332.267 256 332.267Z" fill="white"/>
  </g>
  <g filter="url(#filter1_d_1_2)">
    <path d="M259.733 201.067H252.267V262.4H313.6V254.933H259.733V201.067Z" fill="white"/>
  </g>
  <defs>
    <filter id="filter0_d_1_2" x="142" y="148.667" width="228" height="228" filterUnits="userSpaceOnUse" color-interpolation-filters="sRGB">
      <feFlood flood-opacity="0" result="BackgroundImageFix"/>
      <feColorMatrix in="SourceAlpha" type="matrix" values="0 0 0 0 0 0 0 0 0 0 0 0 0 0 0 0 0 0 127 0" result="hardAlpha"/>
      <feOffset dy="4"/>
      <feGaussianBlur stdDeviation="5"/>
      <feComposite in2="hardAlpha" operator="out"/>
      <feColorMatrix type="matrix" values="0 0 0 0 0 0 0 0 0 0 0 0 0 0 0 0 0 0 0.3 0"/>
      <feBlend mode="normal" in2="BackgroundImageFix" result="effect1_dropShadow_1_2"/>
      <feBlend mode="normal" in="SourceGraphic" in2="effect1_dropShadow_1_2" result="shape"/>
    </filter>
    <filter id="filter1_d_1_2" x="242.267" y="195.067" width="81.3333" height="81.3333" filterUnits="userSpaceOnUse" color-interpolation-filters="sRGB">
      <feFlood flood-opacity="0" result="BackgroundImageFix"/>
      <feColorMatrix in="SourceAlpha" type="matrix" values="0 0 0 0 0 0 0 0 0 0 0 0 0 0 0 0 0 0 127 0" result="hardAlpha"/>
      <feOffset dy="4"/>
      <feGaussianBlur stdDeviation="5"/>
      <feComposite in2="hardAlpha" operator="out"/>
      <feColorMatrix type="matrix" values="0 0 0 0 0 0 0 0 0 0 0 0 0 0 0 0 0 0 0.3 0"/>
      <feBlend mode="normal" in2="BackgroundImageFix" result="effect1_dropShadow_1_2"/>
      <feBlend mode="normal" in="SourceGraphic" in2="effect1_dropShadow_1_2" result="shape"/>
    </filter>
  </defs>
</svg>
