<svg xmlns="http://www.w3.org/2000/svg" width="192" height="192" viewBox="0 0 192 192" fill="none">
  <rect width="192" height="192" rx="38.4" fill="#6D28D9"/>
  <g filter="url(#filter0_d_1_2)">
    <path d="M96 58C74.46 58 57 75.46 57 97C57 118.54 74.46 136 96 136C117.54 136 135 118.54 135 97C135 75.46 117.54 58 96 58ZM96 124.6C80.742 124.6 68.4 112.258 68.4 97C68.4 81.742 80.742 69.4 96 69.4C111.258 69.4 123.6 81.742 123.6 97C123.6 112.258 111.258 124.6 96 124.6Z" fill="white"/>
  </g>
  <g filter="url(#filter1_d_1_2)">
    <path d="M97.4 75.4H94.6V98.4H117.6V95.6H97.4V75.4Z" fill="white"/>
  </g>
  <defs>
    <filter id="filter0_d_1_2" x="53" y="58" width="86" height="86" filterUnits="userSpaceOnUse" color-interpolation-filters="sRGB">
      <feFlood flood-opacity="0" result="BackgroundImageFix"/>
      <feColorMatrix in="SourceAlpha" type="matrix" values="0 0 0 0 0 0 0 0 0 0 0 0 0 0 0 0 0 0 127 0" result="hardAlpha"/>
      <feOffset dy="4"/>
      <feGaussianBlur stdDeviation="2"/>
      <feComposite in2="hardAlpha" operator="out"/>
      <feColorMatrix type="matrix" values="0 0 0 0 0 0 0 0 0 0 0 0 0 0 0 0 0 0 0.25 0"/>
      <feBlend mode="normal" in2="BackgroundImageFix" result="effect1_dropShadow_1_2"/>
      <feBlend mode="normal" in="SourceGraphic" in2="effect1_dropShadow_1_2" result="shape"/>
    </filter>
    <filter id="filter1_d_1_2" x="90.6" y="75.4" width="31" height="31" filterUnits="userSpaceOnUse" color-interpolation-filters="sRGB">
      <feFlood flood-opacity="0" result="BackgroundImageFix"/>
      <feColorMatrix in="SourceAlpha" type="matrix" values="0 0 0 0 0 0 0 0 0 0 0 0 0 0 0 0 0 0 127 0" result="hardAlpha"/>
      <feOffset dy="4"/>
      <feGaussianBlur stdDeviation="2"/>
      <feComposite in2="hardAlpha" operator="out"/>
      <feColorMatrix type="matrix" values="0 0 0 0 0 0 0 0 0 0 0 0 0 0 0 0 0 0 0.25 0"/>
      <feBlend mode="normal" in2="BackgroundImageFix" result="effect1_dropShadow_1_2"/>
      <feBlend mode="normal" in="SourceGraphic" in2="effect1_dropShadow_1_2" result="shape"/>
    </filter>
  </defs>
</svg>
